<svg width="107" height="16" viewBox="0 0 107 16" fill="none" xmlns="http://www.w3.org/2000/svg">
<g id="Logotype">
<path d="M0.604004 15.4319H4.21305V9.19491H11.41V6.02391H4.21305V3.35691H11.8744V0.206909H0.604004V15.4319Z" fill="#101828"/>
<path d="M18.0083 6.48591C19.3802 6.48591 20.4777 7.32591 20.4777 9.74091C20.4777 12.1139 19.4224 13.0169 18.0083 13.0169C16.5942 13.0169 15.539 12.1139 15.539 9.74091C15.539 7.32591 16.6365 6.48591 18.0083 6.48591ZM18.0083 3.79791C14.8636 3.79791 11.9932 5.64591 11.9932 9.74091C11.9932 13.8359 14.8636 15.7049 18.0083 15.7049C21.153 15.7049 24.0234 13.8359 24.0234 9.74091C24.0234 5.64591 21.153 3.79791 18.0083 3.79791Z" fill="#101828"/>
<path d="M30.7104 3.79791C27.2702 3.79791 24.9064 6.12891 24.9064 9.71991C24.9064 13.3109 26.9747 15.7049 30.7104 15.7049C32.9898 15.7049 35.7124 14.6339 36.4933 11.2739H33.243C32.9898 12.3449 32.2089 13.0169 30.9214 13.0169C29.6762 13.0169 28.4521 12.1979 28.4521 9.74091C28.4521 7.32591 29.6762 6.48591 30.9214 6.48591C31.9556 6.48591 32.7787 6.94791 33.0953 8.27091H36.3456C35.6702 4.86891 33.0742 3.79791 30.7104 3.79791Z" fill="#101828"/>
<path d="M44.676 8.37591C40.2649 8.71191 37.1202 9.61491 37.1202 12.3869C37.1202 14.4449 38.8931 15.7049 41.0458 15.7049C42.6709 15.7049 44.0217 15.2639 44.8659 14.0669L44.9081 15.4319H48.3272C48.1584 14.7179 48.074 13.3949 48.074 12.1559V10.9799L48.1162 8.52291C48.1795 5.09991 46.3222 3.77691 43.0508 3.77691C39.674 3.77691 37.6478 5.66691 37.479 7.78791H40.7292C40.877 6.69591 41.6368 6.12891 42.7554 6.12891C44.0217 6.12891 44.676 6.59091 44.676 7.93491V8.37591ZM44.7604 10.6859C44.7604 12.7649 43.7051 13.3529 42.3122 13.3529C41.4046 13.3529 40.7081 12.8699 40.7081 12.1349C40.7081 10.9169 42.3333 10.6439 44.7604 10.4129V10.6859Z" fill="#101828"/>
<path d="M53.3858 0.206909H49.9034V15.4319H53.3858V0.206909Z" fill="#101828"/>
<path d="M55.6062 0.206909V15.4319H59.2152V10.1609H61.4946C65.4624 10.1609 68.4383 9.17391 68.4383 5.16291C68.4383 1.17291 65.4624 0.206909 61.4946 0.206909H55.6062ZM61.6001 3.23091C63.2886 3.23091 64.6182 3.56691 64.6182 5.16291C64.6182 6.75891 63.2886 7.13691 61.6001 7.13691H59.2152V3.23091H61.6001Z" fill="#101828"/>
<path d="M74.5563 6.48591C75.9281 6.48591 77.0256 7.32591 77.0256 9.74091C77.0256 12.1139 75.9704 13.0169 74.5563 13.0169C73.1422 13.0169 72.0869 12.1139 72.0869 9.74091C72.0869 7.32591 73.1844 6.48591 74.5563 6.48591ZM74.5563 3.79791C71.4116 3.79791 68.5412 5.64591 68.5412 9.74091C68.5412 13.8359 71.4116 15.7049 74.5563 15.7049C77.701 15.7049 80.5714 13.8359 80.5714 9.74091C80.5714 5.64591 77.701 3.79791 74.5563 3.79791Z" fill="#101828"/>
<path d="M81.9648 4.13391V15.4319H85.4683V4.13391H81.9648ZM81.9648 0.206909V2.97891H85.4472V0.206909H81.9648Z" fill="#101828"/>
<path d="M91.0229 4.13391H87.5405V15.4319H91.0229V9.63591C91.0229 7.53591 91.6349 6.56991 93.1334 6.56991C94.8219 6.56991 94.8852 7.89291 94.8852 9.50991V15.4319H98.3676V8.64891C98.3676 5.58291 97.4601 3.88191 94.5475 3.88191C92.7535 3.88191 91.5294 4.78491 91.0229 5.62491V4.13391Z" fill="#101828"/>
<path d="M100.776 4.13391H98.9816V6.59091H100.776V12.2609C100.776 14.8859 101.725 15.4319 104.532 15.4319H106.748V12.9329H105.757C104.596 12.9329 104.258 12.7229 104.258 11.6519V6.59091H106.748V4.13391H104.258V1.04691H100.776V4.13391Z" fill="#101828"/>
</g>
</svg>
